<?xml version="1.0" standalone="no"?>
<!DOCTYPE svg PUBLIC "-//W3C//DTD SVG 20010904//EN"
 "http://www.w3.org/TR/2001/REC-SVG-20010904/DTD/svg10.dtd">
<svg version="1.0" xmlns="http://www.w3.org/2000/svg"
 width="500.000000pt" height="507.000000pt" viewBox="0 0 500.000000 507.000000"
 preserveAspectRatio="xMidYMid meet">

<g transform="translate(0.000000,507.000000) scale(0.100000,-0.100000)"
fill="#000000" stroke="none">
<path d="M3715 4718 c-27 -5 -77 -13 -109 -19 -235 -41 -463 -252 -551 -509
-40 -117 -46 -156 -47 -290 0 -136 8 -181 54 -280 76 -168 175 -254 358 -314
41 -13 66 -27 68 -38 4 -20 -51 -84 -88 -103 -64 -33 -30 -115 47 -115 45 0
157 25 193 42 14 7 40 23 58 37 31 23 35 23 105 12 139 -23 228 -30 254 -20
13 5 45 9 71 9 119 0 300 64 412 147 68 50 120 96 120 106 0 5 9 21 21 35 58
76 69 104 90 227 18 110 20 138 10 237 -5 62 -19 149 -30 193 -40 157 -148
325 -279 437 -26 22 -52 46 -57 53 -17 21 -181 102 -252 124 -117 36 -332 50
-448 29z m373 -113 c107 -26 296 -136 366 -214 137 -150 138 -151 187 -309 25
-77 31 -120 39 -253 9 -158 9 -161 -16 -227 -14 -37 -30 -80 -36 -97 -15 -40
-168 -179 -245 -220 -92 -51 -207 -75 -351 -75 -66 0 -133 5 -149 11 -15 6
-63 12 -105 13 -71 1 -79 -1 -105 -26 -16 -15 -55 -37 -87 -48 -72 -25 -84
-25 -63 -2 22 24 57 109 57 137 0 34 -55 72 -135 94 -37 11 -71 24 -74 30 -4
5 -27 19 -51 30 -92 41 -154 132 -206 300 -20 64 -19 242 1 321 16 62 30 93
107 242 41 81 118 157 228 228 43 28 158 73 210 83 52 11 366 -3 428 -18z"/>
<path d="M3842 4358 c-7 -7 -12 -29 -12 -49 0 -30 -4 -38 -22 -43 -36 -9 -38
-8 -49 24 -17 46 -61 37 -71 -15 -2 -13 -17 -23 -51 -33 -40 -11 -47 -17 -47
-38 0 -27 30 -44 79 -44 20 0 31 -7 39 -25 6 -14 18 -25 27 -25 21 0 19 -7
-10 -42 -29 -34 -30 -62 -7 -137 14 -43 24 -57 52 -72 19 -11 49 -19 67 -19
26 0 33 -4 33 -20 0 -21 -27 -40 -58 -40 -31 0 -64 -32 -56 -54 6 -16 14 -18
66 -12 l58 6 18 -38 c13 -28 23 -37 42 -37 22 0 25 5 28 42 3 35 7 43 32 51
60 22 45 86 -19 80 -30 -2 -36 0 -36 16 0 11 13 26 30 36 17 9 36 27 43 41 15
27 10 100 -9 142 -14 32 -100 78 -132 71 -12 -2 -43 -7 -68 -10 l-47 -6 6 28
c10 56 47 72 79 34 26 -30 48 -25 99 24 56 54 56 79 0 86 -39 5 -44 10 -65 63
-12 30 -21 33 -39 15z m46 -320 c-5 -14 -86 -40 -99 -32 -18 11 -8 24 24 33
47 14 79 13 75 -1z m62 -88 c0 -15 -32 -28 -86 -35 -39 -6 -53 -4 -63 9 -19
22 -16 23 127 34 12 1 22 -2 22 -8z"/>
<path d="M2655 3006 c-65 -29 -171 -151 -235 -269 -24 -43 -46 -75 -51 -70 -4
4 -33 42 -64 83 -150 201 -311 240 -401 98 -14 -22 -30 -64 -34 -92 -5 -28
-14 -90 -21 -138 -8 -53 -18 -88 -25 -88 -6 0 -27 6 -45 14 -54 22 -187 34
-282 26 -69 -7 -96 -14 -134 -37 -60 -37 -80 -66 -95 -134 -11 -51 -10 -59 15
-110 47 -97 97 -183 126 -214 15 -16 38 -48 52 -70 14 -22 43 -67 65 -100 21
-34 62 -105 89 -159 55 -108 81 -134 114 -116 42 22 37 53 -27 178 -33 64 -76
144 -96 177 -20 33 -36 65 -36 72 0 6 -3 13 -7 15 -10 4 -111 132 -147 185
-33 49 -48 107 -36 138 11 29 65 60 127 73 59 13 154 2 231 -28 29 -11 59 -20
68 -20 9 0 28 -8 42 -19 69 -48 127 -30 104 32 -20 54 -5 261 23 324 28 62 49
76 96 63 52 -15 161 -126 218 -224 46 -77 72 -106 98 -106 32 0 50 19 69 72
18 51 81 178 116 234 53 83 138 140 174 116 23 -15 66 -96 81 -151 8 -31 21
-78 29 -106 8 -27 23 -85 33 -128 31 -127 51 -135 137 -52 47 45 211 155 231
155 4 0 35 12 70 26 36 14 79 24 96 22 29 -3 32 -7 35 -38 4 -37 -9 -89 -39
-157 -10 -23 -23 -59 -28 -80 -6 -21 -19 -64 -31 -96 -23 -64 -90 -403 -90
-454 0 -17 -4 -43 -10 -57 -12 -32 2 -115 21 -127 22 -13 55 -11 69 6 7 8 18
77 25 153 17 171 85 467 156 672 27 80 29 91 20 154 -11 79 -32 107 -92 125
-76 23 -175 0 -260 -60 -14 -9 -36 -21 -50 -24 -13 -4 -55 -31 -94 -60 -51
-39 -73 -51 -82 -43 -7 6 -13 17 -13 25 0 9 -6 36 -14 62 -8 25 -20 71 -27
101 -17 77 -42 131 -79 174 -57 64 -118 82 -185 52z"/>
<path d="M2176 2199 c-64 -51 -6 -151 79 -135 58 11 69 96 17 136 -32 26 -63
25 -96 -1z"/>
<path d="M2705 2195 c-68 -68 31 -165 108 -105 34 27 35 59 1 99 -33 39 -74
41 -109 6z"/>
<path d="M2532 2133 c-21 -14 -30 -15 -70 -4 -38 10 -48 9 -60 -2 -32 -33 34
-87 106 -87 51 0 92 36 92 80 0 25 -4 30 -22 29 -13 0 -34 -7 -46 -16z"/>
<path d="M467 943 c-4 -3 -7 -41 -7 -83 0 -90 -13 -111 -56 -91 -23 10 -25 15
-19 55 8 50 -6 86 -34 86 -25 0 -38 -34 -46 -122 -7 -72 -6 -76 16 -92 13 -9
43 -16 66 -16 41 0 43 -1 43 -29 0 -34 -57 -206 -88 -268 -27 -51 -28 -81 -4
-99 39 -30 62 -18 91 48 16 35 38 93 50 129 l22 66 76 7 c131 11 143 9 143
-17 0 -30 -27 -67 -48 -67 -9 0 -35 10 -58 22 -73 38 -101 -4 -44 -69 17 -18
30 -37 30 -41 0 -5 -27 -24 -60 -43 -71 -40 -87 -71 -50 -101 12 -10 27 -18
34 -18 11 0 84 44 140 84 26 18 27 18 66 -8 47 -31 60 -32 90 -8 27 22 19 44
-31 87 l-32 27 36 67 c46 85 49 130 10 161 -26 20 -34 21 -123 14 -159 -13
-155 -14 -158 23 -4 39 0 40 145 46 109 4 133 14 133 53 0 37 -28 45 -135 36
-64 -5 -101 -4 -110 3 -7 5 -15 41 -18 78 -4 37 -9 72 -12 77 -7 11 -48 13
-58 3z"/>
<path d="M4549 923 c-5 -15 -7 -44 -4 -64 l6 -37 -65 -7 c-71 -7 -114 -31
-103 -58 4 -10 21 -17 49 -19 l42 -3 -1 -60 -1 -60 -48 -16 c-52 -17 -76 -41
-58 -59 8 -8 89 -12 238 -12 201 -1 229 0 244 15 24 24 5 50 -44 60 l-40 9 -2
69 c-2 66 -1 70 23 79 31 12 40 32 27 57 -9 15 -24 18 -99 18 l-88 0 -3 30
c-8 80 -51 114 -73 58z m133 -240 c-2 -38 -8 -70 -13 -73 -6 -5 -79 -5 -111
-1 -13 2 -9 116 4 129 7 7 38 12 69 12 l57 0 -6 -67z"/>
<path d="M622 923 c-22 -38 28 -100 74 -91 13 2 20 13 22 35 3 28 -2 36 -30
53 -40 24 -54 25 -66 3z"/>
<path d="M2473 933 c-7 -2 -13 -11 -13 -19 0 -7 -11 -16 -25 -19 -14 -3 -37
-7 -51 -10 -21 -5 -25 -11 -22 -33 3 -23 8 -28 42 -32 34 -4 41 -9 51 -40 9
-27 17 -35 36 -35 18 0 26 7 33 32 6 17 18 34 28 36 36 10 31 35 -15 82 -25
25 -47 45 -49 44 -2 0 -9 -3 -15 -6z"/>
<path d="M2773 933 c-7 -3 -13 -11 -13 -19 0 -8 -15 -16 -40 -20 -48 -8 -53
-29 -15 -64 14 -13 25 -29 25 -36 0 -6 8 -22 18 -34 28 -34 70 -21 74 23 2 26
8 33 30 35 14 2 29 10 32 18 9 22 -12 54 -34 54 -10 0 -25 8 -32 18 -17 23
-30 30 -45 25z"/>
<path d="M3970 910 c-14 -33 -28 -39 -110 -42 -49 -3 -55 -5 -58 -27 -5 -31
12 -41 68 -41 72 0 125 -52 65 -65 -14 -3 -36 -7 -50 -10 -59 -12 -1 -65 72
-65 21 0 49 -3 61 -7 37 -9 6 -23 -53 -23 -69 0 -122 -17 -139 -43 -17 -27
-37 -281 -25 -315 12 -31 36 -38 59 -17 15 13 20 34 22 89 l3 71 143 5 143 5
30 35 c26 31 29 41 24 79 -6 52 -26 78 -69 89 -28 8 -31 12 -31 48 0 37 -2 40
-42 52 -67 21 -55 56 22 69 44 7 50 11 50 33 0 29 -34 50 -82 50 -25 0 -33 4
-33 18 0 47 -52 56 -70 12z m168 -359 c8 -5 12 -17 10 -27 -2 -14 -13 -20 -45
-22 -34 -3 -42 0 -48 17 -3 12 -3 25 0 31 8 12 65 13 83 1z m-168 -16 c0 -8 0
-18 1 -22 0 -5 -14 -11 -30 -14 -37 -8 -65 9 -55 34 8 23 84 25 84 2z"/>
<path d="M1164 879 c-4 -7 -9 -46 -11 -88 -4 -95 -6 -101 -40 -101 -42 0 -48
10 -48 75 0 57 -1 60 -25 60 -49 0 -80 -121 -45 -172 18 -25 77 -47 111 -40
24 4 24 3 24 -67 0 -39 -3 -102 -7 -139 -6 -66 -7 -68 -32 -65 -25 3 -26 6
-29 73 -3 77 -14 100 -42 85 -26 -14 -40 -63 -40 -140 0 -59 3 -69 26 -91 25
-23 30 -24 182 -24 133 0 163 3 195 19 54 26 58 40 46 142 -11 99 -24 122 -54
100 -15 -11 -20 -29 -23 -85 -3 -41 -10 -75 -17 -81 -8 -6 -35 -10 -62 -8
l-48 3 1 127 c0 151 4 158 81 158 65 0 121 24 134 57 10 27 12 126 3 161 -4
12 -17 25 -31 28 -34 9 -52 -19 -53 -81 0 -70 -7 -77 -71 -73 l-54 3 -5 85
c-5 83 -6 85 -32 88 -14 2 -29 -2 -34 -9z"/>
<path d="M3122 853 c-7 -3 -23 -26 -37 -52 -13 -26 -31 -54 -40 -61 -33 -27
-36 -59 -24 -234 13 -195 19 -209 99 -224 57 -11 103 1 128 32 16 22 18 40 16
165 -2 82 -8 150 -15 163 -23 46 -51 68 -87 68 -32 0 -34 2 -27 28 3 15 12 34
19 42 40 47 19 94 -32 73z m37 -237 c7 -8 11 -30 9 -48 -3 -29 -7 -33 -34 -36
-31 -3 -32 -1 -36 40 -3 24 -3 46 -1 51 7 12 50 8 62 -7z m16 -211 c0 -27 -3
-30 -29 -30 -24 0 -31 5 -37 27 -9 33 -3 40 36 36 26 -3 30 -7 30 -33z"/>
<path d="M3415 824 c-14 -15 -25 -32 -25 -37 0 -6 -6 -18 -13 -26 -8 -9 -19
-35 -26 -58 -19 -69 15 -106 65 -68 12 9 43 14 86 15 89 0 99 -4 87 -39 -5
-15 -8 -88 -7 -162 3 -129 4 -134 25 -137 38 -6 55 37 67 166 5 65 10 143 11
174 0 75 -15 87 -110 88 -38 0 -76 4 -83 9 -8 5 -13 23 -12 42 1 19 2 40 1 47
-2 21 -41 13 -66 -14z"/>
<path d="M1894 812 c-20 -14 -24 -43 -25 -210 -1 -92 -4 -175 -8 -184 -3 -9
-22 -27 -41 -40 -42 -29 -48 -50 -20 -78 37 -37 97 -1 132 79 18 38 20 65 20
218 -1 142 -4 179 -17 199 -16 25 -23 28 -41 16z"/>
<path d="M2547 680 c-62 -12 -76 -49 -68 -180 3 -53 10 -61 58 -75 49 -14 43
-29 -13 -35 -89 -10 -82 -67 10 -77 44 -5 46 -7 46 -38 0 -77 86 -85 92 -8 3
38 3 38 44 35 53 -4 83 25 66 63 -10 22 -18 25 -62 25 -32 0 -49 4 -45 10 3 6
22 10 40 10 30 0 35 4 40 28 4 15 10 35 16 44 13 26 11 151 -3 170 -26 33
-130 46 -221 28z m148 -79 c10 -17 -12 -21 -75 -14 -39 4 -56 9 -48 14 18 12
115 11 123 0z m-11 -97 c34 -13 14 -25 -36 -23 -67 3 -89 9 -82 20 6 10 94 12
118 3z"/>
<path d="M1672 606 c-43 -63 -65 -131 -52 -157 12 -22 37 -24 61 -6 29 22 72
118 73 161 1 37 -1 41 -25 44 -22 3 -32 -5 -57 -42z"/>
<path d="M2077 613 c-29 -28 26 -148 73 -158 16 -4 34 -4 40 0 20 12 9 56 -25
104 -40 55 -69 73 -88 54z"/>
<path d="M3429 540 c-8 -5 -24 -27 -34 -50 -18 -40 -18 -41 2 -62 29 -28 58
-16 77 33 24 58 21 89 -6 89 -13 0 -30 -5 -39 -10z"/>
<path d="M4535 469 c-38 -5 -77 -16 -85 -25 -11 -11 -15 -37 -15 -104 0 -76 3
-93 20 -109 30 -28 96 -39 211 -36 138 4 154 14 154 93 -1 77 -17 142 -42 170
-19 19 -31 22 -97 21 -42 -1 -107 -6 -146 -10z m182 -74 c4 -12 -170 -37 -193
-28 -32 12 -4 28 57 34 87 8 132 6 136 -6z m30 -108 c-4 -14 -163 -33 -201
-23 -17 4 -26 13 -26 26 0 18 9 20 98 22 99 3 136 -4 129 -25z"/>
</g>
</svg>
