<?xml version="1.0" standalone="no"?>
<!DOCTYPE svg PUBLIC "-//W3C//DTD SVG 20010904//EN"
 "http://www.w3.org/TR/2001/REC-SVG-20010904/DTD/svg10.dtd">
<svg version="1.0" xmlns="http://www.w3.org/2000/svg"
 width="516.000000pt" height="500.000000pt" viewBox="0 0 516.000000 500.000000"
 preserveAspectRatio="xMidYMid meet">

<g transform="translate(0.000000,500.000000) scale(0.100000,-0.100000)"
fill="#000000" stroke="none">
<path d="M0 2500 l0 -2500 2580 0 2580 0 0 2500 0 2500 -2580 0 -2580 0 0
-2500z m2293 1600 l-6 -99 144 -3 144 -3 0 -25 0 -25 -127 -3 c-80 -2 -128 -7
-128 -13 0 -19 44 -113 71 -154 35 -51 92 -105 147 -139 47 -30 50 -36 23 -60
-18 -16 -21 -16 -58 3 -76 40 -156 131 -204 235 l-32 68 -37 -79 c-42 -91
-128 -186 -198 -222 -42 -21 -45 -22 -63 -5 -10 9 -19 21 -19 25 0 4 25 22 55
39 30 17 72 52 95 77 41 46 94 144 106 196 l6 27 -126 0 -126 0 0 30 0 30 129
0 c150 0 141 -8 141 123 l0 77 34 0 34 0 -5 -100z m2190 70 l147 0 0 -140 0
-140 -67 0 -68 -1 35 -30 c33 -29 127 -79 149 -79 17 0 23 -20 11 -35 -17 -21
-35 -19 -92 10 -27 14 -54 25 -59 25 -5 0 -9 -52 -9 -116 l0 -115 -27 3 -28 3
-3 118 c-2 112 -1 119 17 124 18 5 15 10 -27 49 -64 59 -93 59 -152 -1 -39
-40 -42 -45 -22 -45 46 0 22 -133 -34 -191 -38 -40 -100 -65 -119 -49 -18 15
-20 40 -2 40 22 0 89 62 103 96 16 38 19 94 5 94 -6 0 -12 -4 -15 -9 -3 -5
-31 -20 -62 -35 -53 -25 -57 -26 -75 -10 -23 21 -25 44 -4 44 22 0 124 54 160
84 l30 25 -67 1 -68 0 0 133 c0 93 4 137 13 146 9 10 34 11 97 7 47 -3 151 -6
233 -6z m-528 -160 l0 -155 -60 -1 c-84 -2 -85 -2 -79 -21 5 -17 25 -63 31
-72 1 -2 25 14 54 35 39 28 55 35 67 27 26 -16 23 -27 -14 -53 -19 -14 -45
-32 -57 -41 l-21 -17 34 -32 c19 -18 49 -41 65 -51 20 -13 30 -27 30 -44 1
-16 -4 -24 -11 -21 -7 3 -14 0 -17 -7 -5 -16 -69 18 -107 57 -34 34 -72 107
-104 201 -12 36 -16 40 -42 37 -16 -2 -30 -5 -30 -5 -3 -3 -7 -141 -5 -174 0
-18 6 -33 12 -33 5 0 8 3 6 8 -3 4 5 7 16 7 12 1 39 4 60 8 l37 8 0 -35 c0
-39 12 -33 -133 -69 -51 -13 -59 -13 -72 0 -19 18 -19 24 0 59 12 24 15 77 15
280 0 138 3 254 7 258 4 3 77 5 162 4 l156 -3 0 -155z m-700 138 c2 -2 5 -12
7 -23 3 -18 -3 -20 -64 -23 l-68 -3 0 -94 0 -94 78 -3 c76 -3 77 -3 80 -30 l3
-28 -80 0 -80 0 -3 -147 -3 -148 -25 0 -25 0 -3 148 -3 147 -93 0 -94 0 -7
-42 c-13 -77 -58 -160 -114 -210 -51 -46 -53 -47 -77 -32 -13 9 -24 18 -24 21
0 3 22 25 49 49 52 46 97 126 103 179 l3 30 -80 5 c-77 5 -80 6 -80 30 0 24 2
25 83 28 l82 3 0 94 0 95 -70 0 c-67 0 -70 1 -70 23 0 13 3 27 8 32 6 7 560 0
567 -7z m315 -5 c8 -7 13 -420 6 -448 -6 -22 -12 -24 -74 -27 -63 -3 -67 -4
-70 -28 -5 -34 -17 -44 -37 -33 -15 9 -17 36 -16 273 1 144 3 266 6 270 4 7
177 1 185 -7z m210 -463 c0 -5 -2 -10 -4 -10 -3 0 -8 5 -11 10 -3 6 -1 10 4
10 6 0 11 -4 11 -10z m-2225 -16 c57 -7 162 -52 187 -80 42 -48 48 -307 12
-509 -32 -183 -55 -301 -63 -325 -9 -27 -27 -88 -62 -210 -12 -41 -30 -100
-41 -130 -11 -30 -26 -79 -34 -108 -16 -56 -78 -194 -97 -215 -7 -7 -17 -22
-24 -32 -6 -11 -15 -19 -20 -18 -64 12 -90 16 -163 23 -108 12 -232 5 -385
-23 -66 -11 -140 -21 -165 -21 l-45 -1 -6 75 c-6 76 -3 393 5 485 20 226 78
495 107 495 5 0 32 -16 60 -35 28 -19 67 -39 87 -45 46 -12 99 -13 106 -1 3 5
18 12 32 15 59 15 188 133 247 226 49 76 86 254 87 417 0 31 38 35 175 17z
m2243 -198 c162 -82 247 -173 352 -378 33 -65 60 -121 60 -124 0 -4 -30 -3
-67 1 -38 4 -106 9 -153 10 -47 1 -103 7 -126 14 -53 14 -411 56 -672 78 -42
3 -65 10 -69 19 -3 8 12 43 32 77 92 150 204 262 302 300 82 31 96 34 196 36
70 1 84 -2 145 -33z m-228 -471 c357 -50 379 -54 399 -79 16 -19 -33 -71 -57
-61 -35 14 -397 73 -619 101 -36 4 -43 9 -43 28 0 12 3 26 8 30 10 11 171 1
312 -19z m-390 -56 c0 -5 -4 -9 -8 -9 -10 0 -40 -66 -48 -106 -3 -16 -1 -49 4
-72 12 -53 2 -89 -45 -150 -18 -24 -34 -51 -34 -60 -1 -9 -4 -1 -8 18 -8 43 5
184 19 210 14 25 13 93 -2 125 -15 33 -3 43 47 39 33 -3 35 -2 29 23 -7 25 -7
25 20 8 14 -10 26 -21 26 -26z m1081 -110 c16 -52 5 -60 -58 -44 -54 14 -61
26 -39 60 12 19 25 25 51 25 31 0 35 -3 46 -41z m-693 -17 c48 -1 86 -9 115
-22 48 -23 167 -133 167 -155 0 -8 5 -15 10 -15 6 0 10 -9 10 -19 0 -11 4 -21
9 -23 5 -1 18 -41 29 -88 19 -78 20 -86 5 -102 -15 -17 -14 -21 15 -62 38 -52
38 -56 12 -79 -11 -9 -17 -22 -15 -29 3 -8 -13 -21 -40 -33 -25 -11 -45 -23
-45 -27 0 -11 -56 -38 -80 -38 -11 0 -20 5 -20 10 0 6 6 10 14 10 8 0 26 14
40 30 14 17 29 30 33 29 21 -3 40 3 63 21 21 17 23 21 10 30 -8 5 -31 10 -50
10 -94 1 -107 34 -30 77 27 15 48 33 47 38 -2 6 -24 10 -49 10 -26 0 -44 3
-41 8 2 4 -4 10 -14 14 -10 4 -24 13 -31 20 -7 7 -22 13 -33 13 -30 0 -79 -28
-79 -45 0 -18 -21 -20 -37 -4 -6 6 -39 9 -82 7 -61 -2 -72 0 -77 14 -3 10 -23
22 -47 29 -56 15 -119 -5 -127 -41 -4 -15 -15 -26 -30 -30 -26 -6 -41 -39 -18
-41 51 -3 65 -12 70 -49 2 -20 -4 -28 -42 -47 -25 -13 -53 -23 -64 -23 -28 0
-95 41 -90 55 3 7 -2 19 -11 28 -8 9 -18 30 -21 46 -4 17 -10 31 -15 31 -5 0
-9 5 -9 11 0 5 5 7 10 4 6 -3 10 -2 10 4 0 6 11 13 25 17 26 6 30 14 40 87 3
26 10 45 16 42 5 -4 9 2 9 12 0 29 56 136 84 160 52 45 103 73 156 84 30 6 66
17 80 24 14 7 30 10 35 6 6 -4 43 -8 83 -9z m501 -11 c15 -10 12 -53 -8 -105
-10 -25 -13 -27 -28 -15 -18 15 -18 15 3 -35 4 -10 0 -14 -13 -13 -16 1 -18
10 -17 81 1 45 2 84 3 89 2 10 43 9 60 -2z m-51 -217 c1 -34 -24 -94 -39 -94
-3 0 -6 24 -6 53 0 35 6 56 16 64 24 19 28 16 29 -23z m-639 -219 c-22 -23
-28 -24 -57 -14 -56 19 -38 37 38 38 l45 1 -26 -25z m331 5 c0 -5 7 -10 16
-10 13 0 14 -3 5 -14 -19 -23 -50 -26 -61 -6 -16 30 -12 40 15 40 14 0 25 -4
25 -10z m-492 -269 c65 -31 72 -38 72 -64 0 -27 -40 -93 -68 -110 -7 -5 -16
-16 -20 -26 -10 -24 -101 -105 -109 -97 -4 4 -3 10 2 14 27 19 65 255 43 268
-10 6 -11 57 0 52 4 -1 40 -18 80 -37z m532 -47 c0 -3 -18 -24 -41 -46 -38
-37 -42 -39 -69 -28 -16 7 -34 9 -39 5 -16 -9 -13 -57 4 -82 13 -19 12 -23
-12 -48 -23 -22 -25 -29 -15 -46 16 -25 16 -27 -10 -31 -14 -2 -24 -11 -26
-23 -5 -26 -79 -98 -120 -116 -18 -8 -32 -17 -32 -21 0 -5 -8 -8 -18 -8 -26 0
-72 -23 -72 -36 0 -19 11 -22 43 -13 18 4 45 10 60 13 27 5 28 4 22 -27 -4
-18 -15 -40 -25 -51 -18 -18 -19 -18 -62 15 -23 19 -45 38 -46 42 -2 4 -25 18
-50 31 -26 13 -56 33 -66 45 -11 12 -25 21 -33 21 -7 0 -13 5 -13 10 0 6 -5
10 -12 10 -6 0 -19 7 -29 16 -19 17 -15 44 5 44 7 0 22 10 34 23 11 12 38 35
59 51 42 33 108 111 135 158 9 17 22 36 27 41 6 6 11 19 11 29 0 16 15 18 183
21 100 1 188 3 195 5 6 1 12 -1 12 -4z m-2430 -68 c137 -25 227 -63 232 -98 5
-35 60 -35 186 3 101 29 119 32 307 36 209 5 223 4 450 -46 87 -19 289 -87
343 -115 15 -7 47 -23 72 -35 90 -44 327 -204 429 -289 l34 -29 -64 -1 c-151
-4 -296 -14 -472 -33 -248 -27 -329 -41 -335 -58 -6 -18 124 -9 319 21 96 15
202 22 377 25 l243 5 99 -96 c67 -65 104 -94 114 -90 9 3 16 9 16 13 0 3 -30
39 -66 80 -76 86 -73 97 25 86 l58 -7 -4 -126 c-2 -70 -7 -130 -11 -134 -4 -3
-41 -16 -82 -27 -91 -25 -267 -28 -386 -7 -176 32 -694 73 -722 57 -29 -16 22
-31 125 -37 152 -8 536 -46 552 -54 10 -5 -12 -21 -70 -49 -55 -26 -112 -65
-164 -111 -76 -68 -199 -160 -212 -160 -4 0 -14 -6 -22 -14 -37 -31 -243 -126
-336 -155 -195 -61 -561 -53 -715 15 -135 60 -257 140 -317 209 -45 53 -80 74
-102 61 -6 -4 -2 -20 11 -41 11 -20 18 -41 15 -49 -10 -27 -141 -49 -252 -44
-89 5 -115 11 -205 47 -137 55 -231 126 -364 274 -36 41 -98 187 -99 235 -2
51 -5 49 117 105 97 44 61 72 -48 37 -77 -24 -199 -82 -230 -109 -23 -19 -18
-9 31 61 18 26 40 64 50 85 20 42 16 41 144 28 48 -6 68 -4 74 5 10 17 -7 26
-79 40 -106 21 -98 14 -90 78 9 71 9 81 1 112 -9 36 5 54 36 46 14 -3 57 -33
97 -66 70 -58 102 -72 116 -49 6 11 -76 93 -133 132 -18 12 -33 25 -33 29 0
16 48 51 110 80 36 16 73 34 82 39 25 13 252 69 338 84 99 17 316 18 410 1z
m2370 -576 c0 -5 -18 -10 -39 -10 -22 0 -43 5 -46 10 -4 6 12 10 39 10 25 0
46 -4 46 -10z m-3576 -185 c-31 -48 14 -62 65 -19 17 14 38 24 46 22 9 -2 31
-39 51 -88 19 -47 50 -108 70 -136 39 -58 131 -151 211 -214 57 -45 212 -121
283 -138 120 -29 278 -23 390 15 63 21 87 19 118 -10 52 -49 292 -177 334
-177 7 0 18 -4 25 -8 18 -12 -1229 -3 -1252 9 -31 15 -206 274 -303 449 -99
177 -126 239 -114 256 10 14 76 64 85 64 4 0 0 -11 -9 -25z m3606 -211 c13
-34 14 -34 -17 -33 -42 1 -111 25 -93 32 87 32 98 33 110 1z m-275 -28 c196
-31 281 -47 303 -59 13 -6 35 -30 48 -53 22 -38 67 -84 134 -137 29 -24 168
-94 203 -102 15 -4 30 -11 33 -17 8 -13 -26 -102 -50 -133 l-21 -25 -610 0
c-1081 0 -1173 1 -1140 12 254 88 455 202 640 362 94 82 121 100 181 120 40
13 156 42 184 45 3 0 46 -6 95 -13z"/>
<path d="M4207 4124 c-4 -4 -7 -20 -7 -36 l0 -28 81 0 80 0 -3 33 -3 32 -70 3
c-39 1 -74 0 -78 -4z"/>
<path d="M4414 4116 c-3 -8 -4 -25 -2 -38 3 -22 7 -23 78 -23 l75 0 3 38 3 37
-76 0 c-56 0 -77 -4 -81 -14z"/>
<path d="M4200 3975 l0 -35 75 0 75 0 0 35 0 35 -75 0 -75 0 0 -35z"/>
<path d="M4410 3975 l0 -35 80 0 80 0 0 35 0 35 -80 0 -80 0 0 -35z"/>
<path d="M3690 4080 l0 -40 106 0 105 0 -3 38 -3 37 -102 3 -103 3 0 -41z"/>
<path d="M3690 3950 l0 -40 105 0 105 0 0 40 0 40 -105 0 -105 0 0 -40z"/>
<path d="M2887 4093 c-4 -3 -7 -46 -7 -95 l0 -88 95 0 95 0 0 95 0 95 -88 0
c-49 0 -92 -3 -95 -7z"/>
<path d="M3437 4104 c-4 -4 -7 -27 -7 -51 l0 -44 48 3 47 3 0 45 0 45 -40 3
c-23 2 -44 0 -48 -4z"/>
<path d="M3430 3915 l0 -45 44 0 c52 0 59 7 50 55 -6 34 -8 35 -50 35 l-44 0
0 -45z"/>
<path d="M3430 3765 l0 -45 44 0 44 0 4 45 3 45 -47 0 -48 0 0 -45z"/>
<path d="M3325 2633 c-29 -16 -75 -61 -75 -75 0 -19 25 -16 73 12 38 21 56 27
64 19 16 -16 57 -7 61 13 7 34 -78 56 -123 31z"/>
<path d="M3662 2588 c-22 -22 -13 -38 21 -38 25 0 42 -9 71 -39 45 -46 71 -45
62 3 -10 50 -53 86 -101 86 -22 0 -46 -5 -53 -12z"/>
<path d="M3380 1989 c0 -11 9 -38 21 -60 23 -45 20 -78 -12 -141 -13 -25 -34
-45 -62 -59 -37 -19 -87 -62 -87 -75 0 -2 10 -4 22 -4 39 0 129 53 162 95 31
38 66 127 66 166 0 11 9 28 21 40 31 31 18 53 -29 45 -21 -3 -53 -2 -70 3 -28
9 -32 7 -32 -10z"/>
<path d="M1090 1791 c-102 -16 -177 -71 -199 -148 -14 -51 -8 -78 34 -163 31
-62 74 -109 140 -155 80 -56 274 -165 294 -165 12 0 40 17 64 39 59 54 102 73
257 116 204 56 266 82 300 124 44 52 41 101 -8 165 -20 27 -56 59 -79 72 -64
35 -278 103 -358 114 -79 11 -376 11 -445 1z"/>
</g>
</svg>
